<svg id="Layer_1" data-name="Layer 1" xmlns="http://www.w3.org/2000/svg" viewBox="0 0 85.04 85.04"><defs><style>.cls-1{fill:none;stroke:#ff3b65;stroke-miterlimit:10;stroke-width:2px;}</style></defs><title>Untitled-2</title><path class="cls-1" d="M57.37,43c1.05-2.85,2-4.52,2.67-6.89s1.35-5.81.34-7.49-.53-2.31-5.63-5.87S48,18.25,46.12,18.4a8,8,0,0,0-5.5,2.25,36.4,36.4,0,0,0-3.15,3,24.81,24.81,0,0,1-5.18,3.11,12.67,12.67,0,0,0-4.83,3c-2.51,2.23-5.91,4.76-7.54,6.3a3.66,3.66,0,0,0-1.1,1.94c-.05.36-.12,2.39,2.38,5.61s3.66,3.95,5.44,6.22,3.88,5.59,7.24,8.53a68.58,68.58,0,0,0,9.93,7.13c3,1.8,6.84,3.63,9,3a12.14,12.14,0,0,0,6-3.21c2.38-2.23,2.37-2.61,2.4-2.95a15.64,15.64,0,0,0-1.54-8,24.21,24.21,0,0,0-2.48-3.4c-1.08-1.31-1.06-4.25-.53-5.71S57.37,43,57.37,43Z"/></svg>