<svg id="Layer_1" data-name="Layer 1" xmlns="http://www.w3.org/2000/svg" viewBox="0 0 85.04 85.04"><defs><style>.cls-1{fill:#ffc6d3;}</style></defs><title>Untitled-2</title><path class="cls-1" d="M57.26,47.3c1.78-2.46,3.18-3.8,4.42-5.92s2.87-5.23,2.35-7.12.1-2.37-3.85-7.17S54.93,21,53,20.57a8,8,0,0,0-5.9.7,37.55,37.55,0,0,0-3.85,2.08A25.18,25.18,0,0,1,37.45,25,12.56,12.56,0,0,0,32,26.57c-3,1.48-7,3-9,4.05a3.65,3.65,0,0,0-1.58,1.57c-.15.33-.75,2.27.79,6s2.46,4.79,3.56,7.46,2.24,6.42,4.69,10.16a67.9,67.9,0,0,0,7.65,9.52c2.45,2.56,5.62,5.34,7.87,5.29a12.18,12.18,0,0,0,6.66-1.47c2.89-1.51,3-1.88,3.1-2.2s1.59-4.49.67-8.15a26.78,26.78,0,0,0-1.47-4c-.69-1.54.11-4.37,1-5.64A19.44,19.44,0,0,0,57.26,47.3Z"/></svg>