<?xml version="1.0" encoding="utf-8"?>
<!-- Generator: Adobe Illustrator 24.0.2, SVG Export Plug-In . SVG Version: 6.00 Build 0)  -->
<svg version="1.1" id="Layer_1" xmlns="http://www.w3.org/2000/svg" xmlns:xlink="http://www.w3.org/1999/xlink" x="0px" y="0px"
	 viewBox="0 0 46 46" style="enable-background:new 0 0 46 46;" xml:space="preserve">
<style type="text/css">
	.st0{fill:#FFFFFF;}
</style>
<path class="st0" d="M4,0h38c2.2,0,4,1.8,4,4v38c0,2.2-1.8,4-4,4H4c-2.2,0-4-1.8-4-4V4C0,1.8,1.8,0,4,0z"/>
<path d="M4.9,1.9h36.2c1.7,0,3,1.3,3,3v36.2c0,1.7-1.3,3-3,3H4.9c-1.7,0-3-1.3-3-3V4.9C1.9,3.3,3.3,1.9,4.9,1.9z"/>
<path class="st0" d="M35.1,17.6h-8.5v-2.4h8.5V17.6z M37.2,29.7c-0.5,1.6-2.4,3.6-6.2,3.6c-3.7,0-6.7-2.1-6.7-6.9
	c0-4.7,2.8-7.1,6.6-7.1c3.7,0,6,2.2,6.5,5.3c0.1,0.6,0.1,1.4,0.1,2.6h-9.7c0.2,3.9,4.2,4,5.5,2.4H37.2z M27.9,24.9h6
	c-0.1-1.9-1.4-2.7-3-2.7C29.1,22.2,28.1,23.1,27.9,24.9z M16.3,33.3H8.5V15.2h8.4c6.6,0.1,6.7,6.6,3.3,8.3
	C24.4,25.1,24.5,33.3,16.3,33.3L16.3,33.3z M12.1,22.4h4.3c3,0,3.5-3.6-0.4-3.6h-3.9V22.4L12.1,22.4z M16.2,26.1h-4.1v3.6h4
	C19.9,29.7,19.6,26.1,16.2,26.1L16.2,26.1z"/>
</svg>
