<?xml version="1.0" encoding="utf-8"?>
<!-- Generator: Adobe Illustrator 24.0.2, SVG Export Plug-In . SVG Version: 6.00 Build 0)  -->
<svg version="1.1" id="Layer_1" xmlns="http://www.w3.org/2000/svg" xmlns:xlink="http://www.w3.org/1999/xlink" x="0px" y="0px"
	 viewBox="0 0 46 46" style="enable-background:new 0 0 46 46;" xml:space="preserve">
<style type="text/css">
	.st0{fill:#FFFFFF;}
</style>
<path class="st0" d="M4,0h38c2.2,0,4,1.8,4,4v38c0,2.2-1.8,4-4,4H4c-2.2,0-4-1.8-4-4V4C0,1.8,1.8,0,4,0z"/>
<path d="M4.9,1.9h36.2c1.7,0,3,1.3,3,3v36.2c0,1.7-1.3,3-3,3H4.9c-1.7,0-3-1.3-3-3V4.9C1.9,3.3,3.3,1.9,4.9,1.9z"/>
<path class="st0" d="M16.5,30.9V15.1c0-0.4,0.3-0.6,0.6-0.5L31.3,23c0.3,0.2,0.3,0.7,0,0.9l-14.2,7.4C16.8,31.5,16.5,31.2,16.5,30.9
	z"/>
</svg>
